#!OML:ASF E:\Mandelcareful walks\Project 1\Capture day 1\Session 1\Subject1.ASF
:FULLY-SPECIFIED
:DEGREES
202
root -19.481 14.417 -0.00366488 -330.781 62.3217 -348.424
lowerback 33.7308 0.546345 -1.43662
upperback 8.19149 0.477059 -3.53465
thorax -8.1582 0.539988 -3.17712
lowerneck -29.483 12.7248 5.4143
upperneck 17.099 22.205 -22.9244
head 14.4987 7.53104 -4.79764
rclavicle -3.45885e-014 4.22417e-014
rhumerus -19.3905 -10.4098 -85.0515
rradius 25.2821
rwrist -46.1747
rhand 15.2606 -35.8536
rfingers 7.12502
rthumb 40.0969 -61.0503
lclavicle -3.45885e-014 4.22417e-014
lhumerus 14.4331 -81.4018 85.8189
lradius 50.673
lwrist -4.48606
lhand -1.47588 -12.7506
lfingers 7.12502
lthumb 24.176 15.7457
rfemur -31.4392 -12.4556 -6.45548
rtibia 56.1527
rfoot -30.0511 -15.4773
rtoes -35.3773
lfemur -65.3152 10.1125 -16.6423
ltibia 61.5389
lfoot -9.41123 5.71451
ltoes -10.9261
203
root -19.2299 14.3906 -0.125205 -331.625 62.0974 -349.745
lowerback 33.5466 0.801468 -1.91343
upperback 8.12688 0.606431 -3.79998
thorax -8.15216 0.602877 -3.24834
lowerneck -29.5257 12.8704 5.73357
upperneck 16.917 22.1762 -22.8362
head 14.4419 7.55457 -4.81244
rclavicle -1.49089e-015 4.54968e-014
rhumerus -18.9663 -13.2508 -84.9519
rradius 23.3823
rwrist -43.2969
rhand 15.9731 -35.5113
rfingers 7.12502
rthumb 40.7668 -60.5014
lclavicle -1.49089e-015 4.54968e-014
lhumerus 14.4392 -81.1663 86.2401
lradius 49.6441
lwrist -5.71764
lhand 0.660916 -11.9123
lfingers 7.12502
lthumb 26.2233 16.2959
rfemur -30.6507 -11.6958 -6.8307
rtibia 54.9705
rfoot -29.3832 -15.7336
rtoes -35.5599
lfemur -66.0173 9.52286 -16.5632
ltibia 63.5763
lfoot -11.0565 6.45011
ltoes -9.42456
204
root -18.9822 14.3725 -0.247226 -332.528 61.9008 -351.154
lowerback 33.276 1.03956 -2.2688
upperback 8.0597 0.761253 -4.03351
thorax -8.1151 0.675326 -3.35751
lowerneck -29.4394 12.9927 5.92679
upperneck 16.6619 22.1107 -22.6449
head 14.2866 7.58263 -4.77745
rclavicle -3.35946e-014 8.18993e-014
rhumerus -18.7029 -16.1985 -84.7748
rradius 21.6915
rwrist -40.3018
rhand 15.9715 -35.3542
rfingers 7.12502
rthumb 40.7653 -60.3447
lclavicle -3.35946e-014 8.18993e-014
lhumerus 15.1089 -81.0605 85.9918
lradius 48.4789
lwrist -6.75238
lhand 4.22255 -11.2718
lfingers 7.12502
lthumb 29.6282 16.3822
rfemur -29.8764 -10.883 -7.04444
rtibia 53.7143
rfoot -28.5093 -16.2036
rtoes -35.0892
lfemur -66.6325 9.07842 -16.4703
ltibia 65.4076
lfoot -12.3167 6.94209
ltoes -8.86816
205
root -18.7395 14.3621 -0.363478 -333.459 61.8451 -352.499
lowerback 33.028 1.19256 -2.48098
upperback 8.08102 0.873778 -4.22866
thorax -7.9912 0.730205 -3.48496
lowerneck -29.5363 13.1099 6.04597
upperneck 16.3035 22.0633 -22.5121
head 14.1304 7.60399 -4.74037
rclavicle 2.84262e-014 -6.62947e-014
rhumerus -18.3366 -19.5896 -84.5607
rradius 20.0641
rwrist -36.8628
rhand 15.3055 -35.2837
rfingers 7.12502
rthumb 40.1392 -60.4676
lclavicle 2.84262e-014 -6.62947e-014
lhumerus 19.0135 -81.9421 82.2958
lradius 47.2294
lwrist -7.18344
lhand 5.99052 -11.202
lfingers 7.12502
lthumb 31.3143 16.1391
rfemur -28.9863 -10.0705 -7.11035
rtibia 52.4144
rfoot -27.4329 -16.849
rtoes -34.1347
lfemur -67.0496 8.65136 -16.3613
ltibia 66.9515
lfoot -13.7111 7.2215
ltoes -9.09735
206
root -18.5029 14.3565 -0.47393 -334.284 61.9083 -353.684
lowerback 33.2933 1.54782 -2.9141
upperback 7.65683 1.13663 -3.97845
thorax -8.548 0.839729 -3.10083
lowerneck -29.3356 13.0608 5.61311
upperneck 16.5912 22.1386 -22.1617
head 14.104 7.63708 -4.53315
rclavicle 7.55382e-015 -5.32743e-014
rhumerus -18.878 -23.2085 -83.2459
rradius 18.5059
rwrist -32.9963
rhand 14.6763 -34.8545
rfingers 7.12502
rthumb 39.5469 -60.2157
lclavicle 7.55382e-015 -5.32743e-014
lhumerus 17.573 -82.8146 84.5605
lradius 46.393
lwrist -6.25934
lhand 5.0162 -10.1658
lfingers 7.12502
lthumb 30.3854 17.351
rfemur -28.0558 -9.38428 -7.11091
rtibia 51.1177
rfoot -26.4902 -17.429
rtoes -32.9814
lfemur -67.321 8.28714 -16.3988
ltibia 68.191
lfoot -15.0604 7.35749
ltoes -8.50395
